<?xml version="1.0" standalone="no"?>
<!DOCTYPE svg PUBLIC "-//W3C//DTD SVG 20010904//EN"
 "http://www.w3.org/TR/2001/REC-SVG-20010904/DTD/svg10.dtd">
<svg version="1.0" xmlns="http://www.w3.org/2000/svg"
width="77" height="40" viewBox="0 0 1024.000000 1024.000000"
 preserveAspectRatio="xMidYMid meet">

<g transform="translate(0.000000,1024.000000) scale(0.100000,-0.100000)"
fill="#000000" stroke="none">
<path d="M0 5120 l0 -5120 5120 0 5120 0 0 5120 0 5120 -5120 0 -5120 0 0
-5120z m5437 2168 c39 -89 55 -114 74 -120 25 -7 244 -56 291 -65 23 -4 44 7
118 66 49 39 98 71 107 71 10 0 77 -33 148 -74 l130 -73 8 -91 c4 -50 12 -103
17 -117 6 -14 39 -44 82 -71 40 -26 105 -71 144 -100 40 -30 75 -54 80 -54 5
0 50 17 101 37 l93 36 26 -24 c27 -25 184 -212 196 -234 5 -7 -7 -46 -27 -90
l-35 -77 107 -184 107 -184 117 0 c81 0 120 -4 127 -13 14 -17 102 -275 102
-300 0 -12 -28 -50 -66 -88 -45 -47 -64 -74 -60 -86 31 -109 66 -354 66 -466
l0 -50 163 7 c99 4 184 2 217 -4 150 -29 270 -131 322 -278 25 -72 34 -310 20
-582 -8 -175 -10 -188 -39 -252 -53 -115 -151 -201 -274 -239 -59 -18 -137
-19 -2679 -19 -2536 0 -2620 1 -2679 19 -33 10 -80 30 -105 45 -64 37 -140
128 -173 205 l-28 66 0 366 0 365 38 76 c41 83 99 143 177 183 82 41 126 48
320 49 l185 1 7 105 c8 123 22 223 50 339 l19 83 -71 74 c-53 55 -70 79 -65
92 3 9 20 60 37 112 16 52 39 116 50 143 l20 47 124 0 124 0 25 53 c34 73 85
161 138 241 l46 68 -26 57 c-50 110 -49 105 -21 148 14 21 66 80 114 132 l89
93 94 -35 c108 -41 95 -44 221 48 47 34 106 76 132 94 52 35 54 40 66 176 l7
79 55 31 c30 17 94 52 141 77 l87 47 35 -27 c19 -15 62 -50 95 -79 l61 -51
112 28 c61 16 133 31 159 35 27 4 55 12 63 18 9 7 34 57 57 112 23 55 44 103
47 108 2 4 80 7 172 7 l169 0 49 -112z m-1053 -3972 c28 -43 83 -79 110 -72
36 9 43 42 15 72 l-22 24 336 0 337 0 0 -102 c0 -130 11 -174 46 -182 18 -5
32 -2 45 10 17 15 19 32 19 146 l0 128 362 0 361 0 -21 -23 c-25 -26 -28 -47
-10 -65 21 -21 45 -13 99 36 l53 47 200 0 c270 0 263 2 185 -66 -35 -30 -89
-74 -120 -97 -61 -46 -69 -63 -69 -156 0 -69 -7 -89 -33 -102 -12 -6 -75 -41
-139 -79 l-118 -68 -93 71 -93 71 -103 -29 c-56 -16 -133 -36 -169 -43 -75
-15 -70 -9 -137 -160 l-35 -77 -172 2 -172 3 -19 50 c-45 122 -69 165 -96 171
-14 3 -80 20 -146 36 -186 47 -176 48 -242 -9 -109 -94 -97 -92 -205 -32 -51
28 -117 67 -145 85 l-53 34 -1 72 c-2 111 -6 119 -89 185 -41 33 -93 79 -115
102 l-39 41 236 0 236 0 16 -24z"/>
<path d="M5188 6900 c-22 -18 -23 -23 -23 -183 0 -176 5 -197 51 -197 49 0 54
18 54 199 0 123 -3 171 -12 178 -27 21 -48 21 -70 3z"/>
<path d="M5895 6784 c-22 -22 -19 -50 7 -68 31 -22 54 -20 72 6 19 27 7 52
-34 66 -23 9 -33 8 -45 -4z"/>
<path d="M4432 6774 c-33 -23 -27 -68 10 -72 41 -5 68 14 68 47 0 42 -37 54
-78 25z"/>
<path d="M4462 6621 l-224 -6 -29 -33 c-41 -46 -41 -108 0 -154 l29 -33 134
-3 133 -4 47 -135 48 -136 -70 -83 c-39 -46 -102 -123 -142 -171 -39 -49 -77
-94 -83 -101 -10 -11 -19 -9 -49 12 -125 85 -357 109 -531 56 -189 -59 -352
-196 -443 -376 -53 -104 -67 -172 -67 -319 0 -120 3 -146 20 -180 l20 -40 95
-3 c153 -5 156 -2 119 103 -40 113 -22 265 44 378 58 99 191 193 308 218 79
17 214 7 277 -21 28 -12 52 -26 52 -30 0 -4 -29 -43 -65 -86 l-66 -79 -69 4
c-157 7 -273 -100 -272 -253 0 -74 21 -129 69 -178 101 -103 267 -109 381 -13
61 52 98 159 82 243 -6 37 -4 48 21 85 16 23 46 62 69 87 39 44 40 45 56 25 9
-11 28 -45 42 -75 23 -49 26 -67 27 -170 0 -89 -4 -126 -18 -163 -29 -73 -24
-77 97 -77 98 0 107 2 120 23 46 72 55 265 17 387 -29 94 -56 148 -115 228
l-47 63 23 30 c13 16 46 57 73 90 28 33 65 79 83 102 19 23 37 41 40 40 3 -1
12 -16 18 -35 7 -18 69 -188 139 -378 69 -190 140 -382 157 -427 20 -56 40
-91 59 -107 69 -59 163 -39 230 48 53 69 106 135 186 235 72 89 77 95 193 247
41 55 95 124 120 154 26 30 95 115 154 188 60 72 111 132 115 132 7 0 81 -183
81 -200 0 -4 -16 -18 -34 -30 -19 -11 -67 -55 -105 -96 -83 -89 -142 -198
-166 -310 -23 -103 -18 -281 11 -339 l19 -40 106 -3 c135 -3 139 1 109 92 -19
54 -22 81 -18 164 3 86 8 107 35 163 18 35 53 84 78 109 54 53 50 55 96 -73
30 -82 31 -92 21 -139 -26 -109 -2 -208 64 -270 33 -31 102 -63 155 -73 60
-11 152 21 208 71 59 53 84 109 84 189 -1 138 -92 234 -238 253 l-58 7 -38
100 -37 100 31 9 c18 4 72 6 120 3 79 -4 98 -9 172 -46 131 -65 227 -185 256
-322 16 -76 7 -193 -21 -256 -33 -76 -24 -83 105 -83 73 0 106 4 114 13 27 34
44 141 38 257 -9 193 -76 342 -217 481 -86 84 -194 145 -309 174 -74 19 -229
22 -310 6 -30 -6 -55 -10 -56 -9 -3 5 -53 142 -146 398 -128 351 -109 334
-367 338 -115 2 -201 -1 -223 -7 -45 -13 -70 -50 -71 -100 0 -48 15 -77 55
-101 28 -17 51 -20 174 -20 l141 0 31 -81 c17 -44 31 -85 31 -90 0 -5 -235 -9
-578 -9 l-578 0 -36 98 c-58 158 -62 141 34 139 97 -2 128 12 155 69 15 31 16
39 3 76 -8 23 -28 51 -43 62 -33 24 -105 27 -485 17z m1283 -718 c-10 -16 -27
-39 -40 -53 -12 -14 -30 -37 -41 -51 -10 -15 -113 -147 -229 -294 -115 -147
-217 -276 -226 -287 -15 -19 -17 -16 -48 69 -60 164 -231 636 -231 640 0 2
187 3 416 3 l416 0 -17 -27z"/>
<path d="M5174 5676 c-36 -36 -41 -62 -23 -114 14 -40 49 -62 100 -62 90 0
135 115 70 181 -43 43 -101 41 -147 -5z"/>
<path d="M3922 6318 c-29 -29 -13 -56 76 -131 128 -108 136 -113 167 -93 48
32 35 53 -97 164 -86 72 -120 86 -146 60z"/>
<path d="M6429 6243 c-88 -86 -104 -114 -77 -141 7 -7 19 -12 28 -12 21 0 186
154 193 180 6 22 -22 60 -44 60 -6 0 -51 -39 -100 -87z"/>
<path d="M3689 6056 c-9 -20 -9 -29 1 -41 20 -24 126 -85 148 -85 27 0 45 25
39 52 -7 26 -98 85 -146 94 -26 5 -32 3 -42 -20z"/>
<path d="M6671 6050 c-88 -49 -109 -78 -79 -108 19 -19 38 -14 108 26 70 41
88 74 54 99 -23 17 -20 17 -83 -17z"/>
<path d="M3487 4681 c-163 -6 -169 -7 -188 -30 -19 -23 -20 -40 -17 -408 l3
-385 24 -19 c21 -17 41 -19 196 -19 170 0 174 0 203 25 44 37 57 76 39 111 -8
16 -27 40 -42 54 -25 24 -32 25 -121 22 l-94 -4 0 61 0 61 74 0 c71 0 76 1 95
29 27 38 28 110 2 142 -16 20 -30 24 -95 27 l-76 4 0 59 0 59 86 0 c47 0 94 5
104 10 24 13 80 93 80 114 0 23 -69 96 -89 94 -9 -1 -92 -4 -184 -7z"/>
<path d="M6821 4674 c-26 -12 -41 -13 -64 -5 -49 18 -76 14 -82 -11 -3 -13 -4
-200 -3 -416 3 -456 -5 -422 109 -422 101 0 108 9 111 143 l3 107 69 -87 c111
-140 135 -163 172 -163 18 0 45 5 60 10 31 12 104 84 104 103 0 6 -59 79 -130
162 -72 82 -130 153 -130 157 0 13 84 118 175 218 73 81 85 99 83 125 -3 27
-9 32 -63 50 -33 11 -70 26 -82 33 -12 6 -28 10 -35 7 -7 -3 -60 -62 -118
-130 l-105 -124 -3 122 c-2 82 -7 124 -15 129 -15 10 -15 10 -56 -8z"/>
<path d="M7807 4684 c-3 -3 -79 -5 -169 -5 -153 2 -166 0 -191 -19 l-27 -21 0
-394 0 -394 22 -15 c18 -13 57 -16 212 -16 l189 0 49 49 c56 57 56 60 -11 126
l-42 40 -110 -4 -110 -3 3 59 3 58 71 5 c79 6 98 16 114 66 24 73 -29 139
-109 134 -80 -6 -81 -5 -81 54 0 65 1 66 120 66 l88 0 35 39 c68 76 70 99 11
150 -33 30 -54 38 -67 25z"/>
<path d="M2563 4670 c-53 -22 -54 -27 -51 -435 l3 -377 24 -19 c30 -24 126
-26 159 -3 20 14 22 23 22 125 0 76 3 108 11 104 6 -4 53 -61 105 -126 92
-115 96 -119 134 -119 57 0 82 13 123 63 l36 45 -27 35 c-15 19 -55 70 -90
113 l-62 77 23 16 c70 46 111 125 111 216 1 118 -63 223 -164 269 -37 17 -69
21 -190 23 -80 2 -155 -1 -167 -7z m285 -233 c31 -28 30 -80 -3 -112 -19 -20
-34 -25 -75 -25 l-50 0 0 78 c0 43 3 82 7 86 14 13 97 -5 121 -27z"/>
<path d="M4002 4660 c-105 -38 -183 -114 -240 -237 -38 -84 -44 -228 -12 -316
45 -122 114 -201 217 -249 125 -59 315 -46 367 25 19 26 21 45 24 195 2 145 0
172 -15 202 l-18 35 -111 3 c-106 3 -112 2 -137 -22 -16 -15 -27 -36 -27 -51
0 -35 50 -85 84 -85 25 0 26 -2 26 -61 l0 -62 -50 5 c-166 16 -230 255 -99
373 53 48 76 55 171 55 l80 0 40 40 c35 35 40 44 34 72 -14 71 -68 98 -193 97
-59 0 -105 -7 -141 -19z"/>
<path d="M4624 4660 c-96 -38 -179 -129 -224 -245 -20 -50 -24 -79 -24 -171 0
-109 0 -113 37 -188 144 -290 485 -313 658 -45 89 139 92 335 6 481 -32 55
-111 129 -168 159 -64 33 -213 38 -285 9z m183 -205 c50 -21 71 -41 99 -97 46
-90 25 -212 -45 -271 -51 -43 -101 -53 -156 -33 -110 42 -157 182 -101 301 27
59 51 82 103 101 49 17 56 17 100 -1z"/>
<path d="M4701 4294 c-12 -15 -21 -34 -21 -44 0 -31 39 -70 70 -70 62 0 97 66
60 113 -29 37 -80 37 -109 1z"/>
<path d="M5585 4669 c-45 -26 -45 -24 -45 -421 l0 -379 26 -26 26 -26 166 5
c146 4 174 8 220 28 151 66 190 255 74 363 l-30 29 37 37 c107 107 54 303
-102 372 -45 20 -71 23 -202 26 -101 2 -157 0 -170 -8z m291 -225 c20 -19 24
-31 19 -52 -9 -40 -33 -53 -90 -50 l-50 3 -3 49 c-5 69 0 76 53 76 36 0 52 -6
71 -26z m-4 -321 c27 -24 23 -69 -7 -89 -19 -12 -36 -15 -70 -10 l-45 7 0 55
0 54 52 0 c34 0 58 -6 70 -17z"/>
<path d="M6276 4665 c-3 -9 -6 -194 -6 -411 0 -387 0 -394 21 -415 18 -18 30
-21 91 -17 55 3 73 8 84 23 12 16 14 89 12 425 l-3 405 -25 -1 c-14 -1 -38 -3
-55 -5 -16 -1 -48 1 -71 5 -34 7 -42 5 -48 -9z"/>
<path d="M5273 4335 c-56 -24 -78 -96 -48 -155 19 -37 43 -50 95 -50 34 0 48
6 76 34 56 56 44 135 -26 171 -35 18 -55 18 -97 0z"/>
</g>
</svg>
