<?xml version="1.0" standalone="no"?>
<!DOCTYPE svg PUBLIC "-//W3C//DTD SVG 20010904//EN"
 "http://www.w3.org/TR/2001/REC-SVG-20010904/DTD/svg10.dtd">
<svg version="1.0" xmlns="http://www.w3.org/2000/svg"
 width="220.000000pt" height="180.000000pt" viewBox="0 0 220.000000 180.000000"
 preserveAspectRatio="xMidYMid meet">
<metadata>
Created by potrace 1.16, written by Peter Selinger 2001-2019
</metadata>
<g transform="translate(0.000000,180.000000) scale(0.100000,-0.100000)"
fill="#000000" stroke="none">
<path d="M122 1411 l-22 -40 61 -38 c34 -21 67 -38 73 -38 6 0 43 -10 81 -22
39 -13 82 -25 98 -28 21 -4 27 -11 27 -30 0 -23 -4 -25 -44 -25 -49 0 -69 -17
-64 -52 2 -15 13 -26 34 -33 l31 -10 -19 -30 c-15 -26 -18 -53 -18 -197 0
-143 -2 -168 -15 -168 -11 0 -15 -11 -15 -40 l0 -40 45 0 45 0 0 -110 c0 -104
1 -112 25 -135 16 -17 35 -25 59 -25 79 0 96 30 96 170 l0 100 40 0 40 0 0 40
c0 22 -4 40 -10 40 -6 0 -10 62 -10 165 0 168 -9 215 -42 228 -7 3 -3 6 10 6
40 2 62 19 62 51 0 32 -10 37 -80 42 -27 2 -36 8 -38 25 -3 18 3 23 35 28 21
3 65 16 98 27 33 12 68 22 77 23 21 2 137 67 138 77 0 14 -42 78 -52 78 -14 0
-128 -71 -128 -80 0 -17 -112 -43 -207 -48 -85 -3 -113 -1 -177 18 -42 13 -76
26 -76 31 0 9 -110 79 -125 79 -6 0 -21 -18 -33 -39z"/>
<path d="M981 1173 c-18 -71 -34 -136 -37 -145 -4 -13 0 -18 15 -18 15 0 23
10 30 38 5 20 17 62 25 92 l15 55 -5 -70 c-3 -38 -7 -80 -10 -93 -4 -19 -1
-23 17 -20 17 2 30 23 60 98 43 108 47 108 19 0 -24 -93 -24 -100 -1 -100 15
0 24 21 50 128 18 70 34 135 37 145 4 14 -1 17 -28 17 -32 0 -34 -2 -70 -93
l-38 -92 6 93 7 92 -30 0 -31 0 -31 -127z"/>
<path d="M1265 1290 c-7 -11 -115 -271 -115 -276 0 -2 9 -4 21 -4 13 0 23 10
30 30 8 22 17 30 35 30 20 0 24 -5 24 -30 0 -23 5 -30 19 -30 23 0 28 19 36
145 3 50 9 102 11 118 5 25 3 27 -25 27 -16 0 -33 -4 -36 -10z"/>
<path d="M1409 1287 c-45 -34 -50 -86 -13 -138 31 -45 30 -94 -1 -94 -14 0
-19 6 -17 18 3 14 -2 18 -20 15 -26 -3 -37 -40 -18 -64 13 -14 56 -19 85 -8
22 9 45 56 45 93 0 17 -11 42 -26 60 -17 20 -24 40 -22 58 4 34 38 46 38 13 0
-16 5 -21 23 -18 25 3 35 41 17 64 -15 17 -69 18 -91 1z"/>
<path d="M1537 1293 c-14 -13 -6 -33 13 -33 25 0 25 -3 -9 -137 l-29 -113 23
0 c20 0 25 10 44 88 42 169 40 162 66 162 18 0 25 5 25 20 0 18 -7 20 -63 20
-35 0 -67 -3 -70 -7z"/>
<path d="M1691 1263 c-22 -85 -61 -242 -61 -247 0 -3 27 -6 59 -6 44 0 60 4
65 16 9 24 9 24 -33 24 l-38 0 10 45 c10 42 13 45 43 45 23 0 33 5 37 20 4 17
0 20 -24 20 -31 0 -36 12 -19 54 7 19 17 25 47 28 27 2 39 8 41 21 3 15 -5 17
-57 17 l-60 0 -10 -37z"/>
<path d="M1841 1263 c-24 -90 -61 -242 -61 -248 0 -4 10 -5 22 -3 18 2 25 14
36 61 11 46 18 57 34 57 21 0 21 -15 1 -97 -4 -19 -1 -23 19 -23 22 0 26 6 36
62 7 40 8 66 2 73 -7 8 -4 18 9 29 11 10 23 36 26 59 9 50 -9 67 -72 67 -40 0
-43 -2 -52 -37z"/>
<path d="M1260 788 c0 -35 3 -148 7 -251 l6 -188 36 3 36 3 3 248 2 247 -45 0
-45 0 0 -62z"/>
<path d="M756 608 c3 -128 8 -239 10 -246 3 -11 26 -13 100 -10 91 3 97 5 120
31 20 23 24 39 24 88 0 51 -4 63 -25 83 l-26 24 31 30 c27 28 30 36 30 97 0
114 -27 135 -175 135 l-95 0 6 -232z"/>
<path d="M1097 693 c-9 -8 -9 -167 -1 -266 l7 -77 32 0 c30 0 33 3 39 38 3 20
6 99 6 175 l0 137 -38 0 c-21 0 -42 -3 -45 -7z"/>
<path d="M1415 688 c-2 -7 -13 -51 -25 -97 l-21 -84 32 -79 c30 -76 32 -78 65
-78 19 0 34 3 34 7 0 4 -12 39 -27 77 l-26 69 26 82 c37 110 36 115 -13 115
-24 0 -42 -5 -45 -12z"/>
<path d="M1598 684 c-44 -23 -48 -41 -41 -170 6 -104 9 -121 28 -140 49 -49
173 -38 204 17 21 38 9 59 -34 59 -31 0 -35 -3 -35 -25 0 -31 -32 -50 -60 -35
-15 8 -20 21 -20 55 l0 44 78 3 77 3 3 65 c4 85 -2 107 -38 125 -37 19 -127
19 -162 -1z"/>
<path d="M1915 688 c-35 -19 -45 -40 -45 -98 0 -66 10 -78 85 -105 28 -10 56
-23 63 -28 17 -13 15 -52 -3 -67 -22 -18 -62 2 -67 32 -2 19 -9 23 -38 23 -29
0 -36 -4 -38 -22 -11 -79 173 -112 223 -40 36 51 13 99 -57 122 -76 25 -79 30
-76 94 3 53 5 56 30 59 29 4 35 -7 40 -78 3 -29 7 -35 28 -38 36 -3 48 8 56
55 6 38 3 45 -24 73 -28 27 -36 30 -94 30 -35 0 -72 -6 -83 -12z"/>
</g>
</svg>
